<?xml version="1.0" standalone="no"?>
<!DOCTYPE svg PUBLIC "-//W3C//DTD SVG 20010904//EN"
 "http://www.w3.org/TR/2001/REC-SVG-20010904/DTD/svg10.dtd">
<svg version="1.0" xmlns="http://www.w3.org/2000/svg"
 width="512.000000pt" height="512.000000pt" viewBox="0 0 512.000000 512.000000"
 preserveAspectRatio="xMidYMid meet">
<metadata>
Created by potrace 1.14, written by Peter Selinger 2001-2017
</metadata>
<g transform="translate(0.000000,512.000000) scale(0.100000,-0.100000)"
fill="#000000" stroke="none">
<path d="M4868 4613 c7 -3 16 -2 19 1 4 3 -2 6 -13 5 -11 0 -14 -3 -6 -6z"/>
<path d="M4025 4550 c-324 -3 -591 -7 -591 -8 -1 -1 -5 -71 -9 -155 l-7 -154
-861 -6 c-474 -4 -1174 -7 -1554 -7 -413 0 -693 -4 -693 -9 0 -6 394 -11 973
-14 534 -2 1206 -10 1492 -16 286 -6 914 -10 1395 -9 l875 3 0 25 c0 22 -5 25
-37 28 l-38 3 0 108 c0 96 -3 112 -23 141 -12 19 -38 43 -57 54 -42 25 -50 25
-865 16z"/>
<path d="M5011 4510 c14 -31 19 -36 19 -24 0 6 -7 19 -16 30 -14 18 -14 18 -3
-6z"/>
<path d="M5031 4454 c0 -11 3 -14 6 -6 3 7 2 16 -1 19 -3 4 -6 -2 -5 -13z"/>
<path d="M2653 4153 c-225 -3 -263 -6 -263 -18 0 -13 -134 -15 -1095 -15
l-1095 0 0 -118 c0 -66 -3 -188 -7 -272 -6 -148 -7 -152 -24 -132 -9 12 -20
22 -23 22 -3 0 -6 -599 -6 -1331 l0 -1332 652 3 c359 2 1426 3 2371 2 1434 -2
1717 -4 1717 -16 0 -9 -25 -15 -92 -20 -50 -3 -822 -6 -1714 -6 l-1624 0 -60
-120 c-33 -66 -66 -120 -74 -120 -20 0 -142 90 -229 169 l-78 71 -400 0 -401
0 3 -129 c4 -144 13 -167 80 -206 37 -22 29 -22 1474 -25 l490 -2 -60 -29 -60
-29 -407 0 c-302 0 -414 3 -434 12 -22 10 -28 10 -32 0 -3 -9 -108 -12 -465
-14 -254 -1 -445 -3 -425 -5 21 -2 38 -8 38 -13 0 -51 683 -75 2150 -75 1457
0 2150 24 2150 74 0 4 38 11 85 13 107 7 167 35 210 96 29 43 30 46 33 188 l3
144 -35 0 c-29 0 -36 4 -36 20 0 16 7 20 34 20 19 0 35 6 37 13 2 6 3 726 1
1600 l-2 1587 -1063 -2 c-584 -2 -1180 -4 -1324 -5z m-307 -261 c41 -60 60
-177 149 -897 25 -203 51 -391 57 -417 l11 -48 172 0 c157 0 175 -2 197 -20
53 -41 71 -122 123 -560 20 -168 40 -321 44 -340 l7 -35 7 45 c4 25 16 164 27
310 34 452 50 547 97 592 l25 23 521 8 c287 4 544 7 571 7 94 0 168 -70 135
-128 -33 -59 -104 -82 -219 -71 -36 4 -257 7 -492 8 -380 1 -428 -1 -428 -14
0 -9 -7 -78 -14 -153 -8 -75 -22 -220 -31 -322 -39 -447 -73 -598 -145 -635
-39 -20 -66 -19 -105 5 -69 42 -93 150 -140 615 -32 319 -43 408 -56 473 l-10
52 -157 1 c-86 1 -168 4 -181 8 -73 20 -93 117 -151 741 -17 179 -37 380 -45
447 -8 67 -15 127 -15 134 0 8 -3 9 -9 4 -10 -10 -33 -190 -76 -600 -51 -475
-89 -656 -145 -681 -29 -12 -956 1 -1030 15 -35 7 -12 9 100 10 428 5 903 20
911 28 29 29 63 277 94 693 17 226 42 505 51 560 10 65 36 145 52 163 25 28
72 18 98 -21z"/>
<path d="M141 681 c-2 -41 39 -111 82 -142 22 -16 45 -29 51 -29 6 0 -8 11
-31 25 -47 28 -78 73 -92 131 -6 27 -9 32 -10 15z"/>
<path d="M298 503 c6 -2 18 -2 25 0 6 3 1 5 -13 5 -14 0 -19 -2 -12 -5z"/>
</g>
</svg>
